<svg width="36" height="34" viewBox="0 0 36 34" fill="none" xmlns="http://www.w3.org/2000/svg">
<g clip-path="url(#clip0)">
<path d="M32.543 0H3.37329C1.97598 0 0.8461 1.08016 0.8461 2.41563V31.0955C0.8461 32.4309 1.97598 33.5176 3.37329 33.5176H32.543C33.9403 33.5176 35.0769 32.4309 35.0769 31.102V2.41563C35.0769 1.08016 33.9403 0 32.543 0ZM11.0017 28.562H5.92054V12.5626H11.0017V28.562ZM8.46111 10.3826C6.8298 10.3826 5.51272 9.09296 5.51272 7.50219C5.51272 5.91141 6.8298 4.62177 8.46111 4.62177C10.0857 4.62177 11.4028 5.91141 11.4028 7.50219C11.4028 9.08642 10.0857 10.3826 8.46111 10.3826ZM30.0158 28.562H24.9413V20.7849C24.9413 18.9322 24.9079 16.5428 22.3005 16.5428C19.6596 16.5428 19.2585 18.5656 19.2585 20.6539V28.562H14.1908V12.5626H19.0579V14.7491H19.1248C19.8 13.4922 21.4581 12.1632 23.9251 12.1632C29.0664 12.1632 30.0158 15.4757 30.0158 19.7833V28.562Z" fill="#04FFF0"/>
</g>
<defs>
<clipPath id="clip0">
<rect width="34.2308" height="33.5176" fill="white" transform="translate(0.8461)"/>
</clipPath>
</defs>
</svg>
