<svg width="35" height="34" viewBox="0 0 35 34" fill="none" xmlns="http://www.w3.org/2000/svg">
<g clip-path="url(#clip0)">
<path d="M34.6589 10.0553C34.6589 10.0553 34.3246 7.74446 33.295 6.72976C31.9913 5.3943 30.5339 5.38775 29.8653 5.30919C25.0783 4.96878 17.8912 4.96878 17.8912 4.96878H17.8778C17.8778 4.96878 10.6907 4.96878 5.90375 5.30919C5.23518 5.38775 3.7777 5.3943 2.47399 6.72976C1.44439 7.74446 1.11679 10.0553 1.11679 10.0553C1.11679 10.0553 0.769135 12.7721 0.769135 15.4823V18.0223C0.769135 20.7325 1.1101 23.4493 1.1101 23.4493C1.1101 23.4493 1.44439 25.7602 2.4673 26.7749C3.77101 28.1103 5.48255 28.0645 6.24472 28.2085C8.98586 28.4638 17.8845 28.5424 17.8845 28.5424C17.8845 28.5424 25.0783 28.5293 29.8653 28.1954C30.5339 28.1169 31.9913 28.1103 33.295 26.7749C34.3246 25.7602 34.6589 23.4493 34.6589 23.4493C34.6589 23.4493 34.9999 20.7391 34.9999 18.0223V15.4823C34.9999 12.7721 34.6589 10.0553 34.6589 10.0553ZM14.3478 21.1057V11.6854L23.5941 16.4119L14.3478 21.1057Z" fill="#05FFF0"/>
</g>
<defs>
<clipPath id="clip0">
<rect width="34.2308" height="33.5176" fill="white" transform="translate(0.769135)"/>
</clipPath>
</defs>
</svg>
