<svg width="17" height="17" viewBox="0 0 17 17" fill="none" xmlns="http://www.w3.org/2000/svg">
<path d="M15.3686 0.793305L15.8026 1.22259C16.4006 1.81486 16.3101 2.86478 15.5989 3.56765L6.64975 12.4204L3.75032 13.4696C3.38623 13.602 3.03171 13.4303 2.95963 13.0876C2.93527 12.9633 2.94674 12.8347 2.99273 12.7165L4.07395 9.82355L12.998 0.99485C13.7093 0.291988 14.7707 0.201766 15.3686 0.794032V0.793305ZM6.25918 1.6737C6.35577 1.6737 6.45142 1.69252 6.54066 1.72909C6.62989 1.76565 6.71098 1.81925 6.77928 1.88681C6.84758 1.95437 6.90176 2.03458 6.93872 2.12286C6.97568 2.21114 6.99471 2.30575 6.99471 2.4013C6.99471 2.49685 6.97568 2.59147 6.93872 2.67974C6.90176 2.76802 6.84758 2.84823 6.77928 2.91579C6.71098 2.98336 6.62989 3.03695 6.54066 3.07352C6.45142 3.11008 6.35577 3.1289 6.25918 3.1289H3.31709C2.92695 3.1289 2.55278 3.28222 2.27691 3.55512C2.00103 3.82802 1.84605 4.19816 1.84605 4.5841V13.3153C1.84605 13.7013 2.00103 14.0714 2.27691 14.3443C2.55278 14.6172 2.92695 14.7705 3.31709 14.7705H12.1434C12.5335 14.7705 12.9077 14.6172 13.1836 14.3443C13.4594 14.0714 13.6144 13.7013 13.6144 13.3153V10.4049C13.6144 10.2119 13.6919 10.0269 13.8298 9.89041C13.9678 9.75396 14.1549 9.67731 14.3499 9.67731C14.545 9.67731 14.7321 9.75396 14.87 9.89041C15.008 10.0269 15.0855 10.2119 15.0855 10.4049V13.3153C15.0855 14.0872 14.7755 14.8275 14.2237 15.3733C13.672 15.9191 12.9237 16.2257 12.1434 16.2257H3.31709C2.5368 16.2257 1.78847 15.9191 1.23672 15.3733C0.68497 14.8275 0.375 14.0872 0.375 13.3153V4.5841C0.375 3.81222 0.68497 3.07194 1.23672 2.52614C1.78847 1.98033 2.5368 1.6737 3.31709 1.6737H6.25918Z" fill="#BFBFBF"/>
</svg>
