<svg width="38" height="37" viewBox="0 0 38 37" fill="none" xmlns="http://www.w3.org/2000/svg">
<g clip-path="url(#clip0)">
<path d="M19.0425 3.33144C24.0907 3.33144 24.6885 3.35312 26.6738 3.43984C28.5189 3.51933 29.5152 3.82285 30.1794 4.07578C31.0577 4.4082 31.6924 4.81289 32.3493 5.45605C33.0135 6.10644 33.4194 6.7207 33.7589 7.58066C34.0172 8.23105 34.3272 9.21386 34.4084 11.0133C34.4969 12.9644 34.5191 13.5498 34.5191 18.4855C34.5191 23.4285 34.4969 24.0139 34.4084 25.9578C34.3272 27.7644 34.0172 28.74 33.7589 29.3904C33.4194 30.2504 33.0061 30.8719 32.3493 31.515C31.685 32.1654 31.0577 32.5629 30.1794 32.8953C29.5152 33.1482 28.5115 33.4517 26.6738 33.5312C24.6811 33.618 24.0833 33.6396 19.0425 33.6396C13.9944 33.6396 13.3966 33.618 11.4113 33.5312C9.56622 33.4517 8.56987 33.1482 7.90564 32.8953C7.02738 32.5629 6.39268 32.1582 5.73583 31.515C5.0716 30.8646 4.66568 30.2504 4.32619 29.3904C4.06788 28.74 3.7579 27.7572 3.67672 25.9578C3.58816 24.0066 3.56601 23.4213 3.56601 18.4855C3.56601 13.5426 3.58816 12.9572 3.67672 11.0133C3.7579 9.20664 4.06788 8.23105 4.32619 7.58066C4.66568 6.7207 5.07898 6.09922 5.73583 5.45605C6.40006 4.80566 7.02738 4.4082 7.90564 4.07578C8.56987 3.82285 9.5736 3.51933 11.4113 3.43984C13.3966 3.35312 13.9944 3.33144 19.0425 3.33144ZM19.0425 0C13.9132 0 13.2711 0.0216797 11.2563 0.108398C9.24886 0.195117 7.86874 0.513086 6.67313 0.968359C5.42585 1.44531 4.37047 2.07402 3.32246 3.10742C2.26708 4.13359 1.62499 5.16699 1.13789 6.38105C0.672928 7.55898 0.348194 8.90312 0.259631 10.8687C0.171067 12.8488 0.148926 13.4775 0.148926 18.5C0.148926 23.5225 0.171067 24.1512 0.259631 26.124C0.348194 28.0896 0.672928 29.441 1.13789 30.6117C1.62499 31.833 2.26708 32.8664 3.32246 33.8926C4.37047 34.9187 5.42586 35.5547 6.66575 36.0244C7.86874 36.4797 9.24148 36.7976 11.2489 36.8844C13.2638 36.9711 13.9058 36.9928 19.0352 36.9928C24.1645 36.9928 24.8066 36.9711 26.8214 36.8844C28.8289 36.7976 30.209 36.4797 31.4046 36.0244C32.6445 35.5547 33.6999 34.9187 34.7479 33.8926C35.7959 32.8664 36.4453 31.833 36.9251 30.6189C37.39 29.441 37.7148 28.0969 37.8033 26.1312C37.8919 24.1584 37.914 23.5297 37.914 18.5072C37.914 13.4848 37.8919 12.8561 37.8033 10.8832C37.7148 8.91758 37.39 7.56621 36.9251 6.39551C36.4601 5.16699 35.818 4.13359 34.7626 3.10742C33.7146 2.08125 32.6592 1.44531 31.4193 0.975586C30.2164 0.520312 28.8436 0.202344 26.8362 0.115625C24.814 0.0216797 24.1719 0 19.0425 0Z" fill="white"/>
<path d="M19.0425 8.99707C13.6844 8.99707 9.3374 13.2535 9.3374 18.5C9.3374 23.7465 13.6844 28.0029 19.0425 28.0029C24.4006 28.0029 28.7476 23.7465 28.7476 18.5C28.7476 13.2535 24.4006 8.99707 19.0425 8.99707ZM19.0425 24.6643C15.5664 24.6643 12.7471 21.9037 12.7471 18.5C12.7471 15.0963 15.5664 12.3357 19.0425 12.3357C22.5186 12.3357 25.3379 15.0963 25.3379 18.5C25.3379 21.9037 22.5186 24.6643 19.0425 24.6643Z" fill="white"/>
<path d="M31.3972 8.62122C31.3972 9.84974 30.3788 10.8398 29.1315 10.8398C27.8768 10.8398 26.8657 9.84251 26.8657 8.62122C26.8657 7.39271 27.8842 6.40266 29.1315 6.40266C30.3788 6.40266 31.3972 7.39993 31.3972 8.62122Z" fill="white"/>
</g>
<defs>
<clipPath id="clip0">
<rect width="37.7872" height="37" fill="white" transform="translate(0.148926)"/>
</clipPath>
</defs>
</svg>
