<svg width="39" height="37" viewBox="0 0 39 37" fill="none" xmlns="http://www.w3.org/2000/svg">
<g clip-path="url(#clip0)">
<path d="M35.2879 0H3.08761C1.54513 0 0.297852 1.19238 0.297852 2.6666V34.3262C0.297852 35.8004 1.54513 37 3.08761 37H35.2879C36.8304 37 38.0851 35.8004 38.0851 34.3334V2.6666C38.0851 1.19238 36.8304 0 35.2879 0ZM11.5086 31.5295H5.89951V13.8678H11.5086V31.5295ZM8.70403 11.4613C6.90324 11.4613 5.44931 10.0377 5.44931 8.28164C5.44931 6.52559 6.90324 5.10195 8.70403 5.10195C10.4975 5.10195 11.9514 6.52559 11.9514 8.28164C11.9514 10.0305 10.4975 11.4613 8.70403 11.4613ZM32.4982 31.5295H26.8965V22.9443C26.8965 20.8992 26.8596 18.2615 23.9813 18.2615C21.0661 18.2615 20.6232 20.4945 20.6232 22.7998V31.5295H15.029V13.8678H20.4018V16.2814H20.4756C21.2211 14.8939 23.0514 13.427 25.7747 13.427C31.4502 13.427 32.4982 17.0836 32.4982 21.8387V31.5295Z" fill="white"/>
</g>
<defs>
<clipPath id="clip0">
<rect width="37.7872" height="37" fill="white" transform="translate(0.297852)"/>
</clipPath>
</defs>
</svg>
