<svg width="39" height="37" viewBox="0 0 39 37" fill="none" xmlns="http://www.w3.org/2000/svg">
<g clip-path="url(#clip0)">
<path d="M37.8577 11.1001C37.8577 11.1001 37.4887 8.54909 36.3521 7.42898C34.913 5.95476 33.3041 5.94753 32.566 5.86081C27.2817 5.48503 19.3479 5.48503 19.3479 5.48503H19.3331C19.3331 5.48503 11.3993 5.48503 6.11498 5.86081C5.37695 5.94753 3.76804 5.95476 2.32888 7.42898C1.19231 8.54909 0.830676 11.1001 0.830676 11.1001C0.830676 11.1001 0.446899 14.0991 0.446899 17.0909V19.8948C0.446899 22.8866 0.823296 25.8856 0.823296 25.8856C0.823296 25.8856 1.19231 28.4366 2.3215 29.5567C3.76066 31.0309 5.65002 30.9803 6.49138 31.1393C9.51731 31.4212 19.3405 31.5079 19.3405 31.5079C19.3405 31.5079 27.2817 31.4934 32.566 31.1249C33.3041 31.0382 34.913 31.0309 36.3521 29.5567C37.4887 28.4366 37.8577 25.8856 37.8577 25.8856C37.8577 25.8856 38.2341 22.8938 38.2341 19.8948V17.0909C38.2341 14.0991 37.8577 11.1001 37.8577 11.1001ZM15.4363 23.2985V12.8995L25.6433 18.1171L15.4363 23.2985Z" fill="white"/>
</g>
<defs>
<clipPath id="clip0">
<rect width="37.7872" height="37" fill="white" transform="translate(0.446899)"/>
</clipPath>
</defs>
</svg>
