<?xml version="1.0" standalone="no"?>
<!DOCTYPE svg PUBLIC "-//W3C//DTD SVG 20010904//EN"
 "http://www.w3.org/TR/2001/REC-SVG-20010904/DTD/svg10.dtd">
<svg version="1.0" xmlns="http://www.w3.org/2000/svg"
 width="141.000000pt" height="132.000000pt" viewBox="0 0 141.000000 132.000000"
 preserveAspectRatio="xMidYMid meet">

<g transform="translate(0.000000,132.000000) scale(0.100000,-0.100000)"
fill="#000000" stroke="none">
<path d="M1125 1090 c-81 -20 -692 -265 -873 -350 -107 -51 -127 -71 -96 -95
30 -23 200 -75 245 -75 53 0 90 19 320 171 107 71 200 129 207 129 26 0 7 -23
-105 -127 -217 -200 -215 -198 -211 -235 3 -31 15 -41 188 -155 271 -180 278
-178 328 102 31 175 74 450 87 550 9 73 -22 102 -90 85z"/>
</g>
</svg>
