<svg width="36" height="34" viewBox="0 0 36 34" fill="none" xmlns="http://www.w3.org/2000/svg">
<g clip-path="url(#clip0)">
<path d="M18.0384 3.01789C22.6115 3.01789 23.153 3.03753 24.9514 3.11609C26.6229 3.1881 27.5254 3.46305 28.1272 3.69218C28.9227 3.99331 29.4977 4.35991 30.0927 4.94254C30.6945 5.53172 31.0622 6.08816 31.3697 6.86718C31.6037 7.45636 31.8845 8.34667 31.9581 9.97673C32.0383 11.7443 32.0583 12.2745 32.0583 16.7457C32.0583 21.2235 32.0383 21.7537 31.9581 23.5147C31.8845 25.1513 31.6037 26.0351 31.3697 26.6243C31.0622 27.4033 30.6878 27.9663 30.0927 28.5489C29.491 29.1381 28.9227 29.4981 28.1272 29.7993C27.5254 30.0284 26.6162 30.3033 24.9514 30.3753C23.1463 30.4539 22.6048 30.4735 18.0384 30.4735C13.4654 30.4735 12.9239 30.4539 11.1254 30.3753C9.454 30.3033 8.55143 30.0284 7.94972 29.7993C7.15412 29.4981 6.57915 29.1315 5.98412 28.5489C5.38241 27.9597 5.0147 27.4033 4.70715 26.6243C4.47315 26.0351 4.19236 25.1448 4.11881 23.5147C4.03858 21.7472 4.01853 21.2169 4.01853 16.7457C4.01853 12.268 4.03858 11.7377 4.11881 9.97673C4.19236 8.34013 4.47315 7.45636 4.70715 6.86718C5.0147 6.08816 5.3891 5.52517 5.98412 4.94254C6.58583 4.35336 7.15412 3.99331 7.94972 3.69218C8.55143 3.46305 9.46069 3.1881 11.1254 3.11609C12.9239 3.03753 13.4654 3.01789 18.0384 3.01789ZM18.0384 0C13.3919 0 12.8102 0.0196392 10.985 0.0981961C9.16651 0.176753 7.91629 0.464795 6.83321 0.877219C5.70332 1.30928 4.74727 1.87882 3.7979 2.81496C2.84185 3.74455 2.26019 4.68068 1.81893 5.78048C1.39773 6.84755 1.10356 8.06518 1.02334 9.8458C0.943107 11.6395 0.92305 12.2091 0.92305 16.7588C0.92305 21.3086 0.943107 21.8781 1.02334 23.6653C1.10356 25.4459 1.39773 26.6701 1.81893 27.7306C2.26019 28.8369 2.84185 29.7731 3.7979 30.7027C4.74727 31.6323 5.70332 32.2083 6.82652 32.6339C7.91629 33.0463 9.15983 33.3343 10.9783 33.4129C12.8035 33.4914 13.3852 33.5111 18.0317 33.5111C22.6783 33.5111 23.26 33.4914 25.0852 33.4129C26.9037 33.3343 28.1539 33.0463 29.237 32.6339C30.3602 32.2083 31.3162 31.6323 32.2656 30.7027C33.215 29.7731 33.8033 28.8369 34.2379 27.7371C34.6591 26.6701 34.9532 25.4524 35.0335 23.6718C35.1137 21.8846 35.1338 21.3151 35.1338 16.7654C35.1338 12.2156 35.1137 11.6461 35.0335 9.85889C34.9532 8.07827 34.6591 6.85409 34.2379 5.79357C33.8167 4.68068 33.235 3.74455 32.279 2.81496C31.3296 1.88537 30.3735 1.30928 29.2503 0.883765C28.1606 0.471341 26.917 0.183299 25.0985 0.104743C23.2666 0.0196392 22.685 0 18.0384 0Z" fill="#04FFF0"/>
<path d="M18.0384 8.15027C13.1846 8.15027 9.24674 12.0061 9.24674 16.7588C9.24674 21.5115 13.1846 25.3673 18.0384 25.3673C22.8922 25.3673 26.8301 21.5115 26.8301 16.7588C26.8301 12.0061 22.8922 8.15027 18.0384 8.15027ZM18.0384 22.3429C14.8895 22.3429 12.3355 19.8422 12.3355 16.7588C12.3355 13.6754 14.8895 11.1747 18.0384 11.1747C21.1874 11.1747 23.7413 13.6754 23.7413 16.7588C23.7413 19.8422 21.1874 22.3429 18.0384 22.3429Z" fill="#04FFF0"/>
<path d="M29.2303 7.8098C29.2303 8.92269 28.3077 9.81955 27.1778 9.81955C26.0412 9.81955 25.1253 8.91615 25.1253 7.8098C25.1253 6.69691 26.0479 5.80005 27.1778 5.80005C28.3077 5.80005 29.2303 6.70346 29.2303 7.8098Z" fill="#04FFF0"/>
</g>
<defs>
<clipPath id="clip0">
<rect width="34.2308" height="33.5176" fill="white" transform="translate(0.92305)"/>
</clipPath>
</defs>
</svg>
