<svg width="35" height="34" viewBox="0 0 35 34" fill="none" xmlns="http://www.w3.org/2000/svg">
<g clip-path="url(#clip0)">
<path d="M34.2308 16.7588C34.2308 7.50317 26.568 0 17.1154 0C7.66281 0 0 7.50317 0 16.7588C0 25.1235 6.25881 32.0568 14.4411 33.314V21.6032H10.0954V16.7588H14.4411V13.0666C14.4411 8.86646 16.9964 6.54641 20.9058 6.54641C22.7778 6.54641 24.7371 6.87373 24.7371 6.87373V10.998H22.5789C20.4529 10.998 19.7897 12.2899 19.7897 13.6165V16.7588H24.5365L23.7777 21.6032H19.7897V33.314C27.9719 32.0568 34.2308 25.1235 34.2308 16.7588Z" fill="#04FFF0"/>
</g>
<defs>
<clipPath id="clip0">
<rect width="34.2308" height="33.5176" fill="white"/>
</clipPath>
</defs>
</svg>
