<svg width="38" height="37" viewBox="0 0 38 37" fill="none" xmlns="http://www.w3.org/2000/svg">
<g clip-path="url(#clip0)">
<path d="M37.7872 18.5C37.7872 8.28273 29.3283 0 18.8936 0C8.45895 0 0 8.28273 0 18.5C0 27.7337 6.90909 35.3874 15.9415 36.7753V23.8477H11.1443V18.5H15.9415V14.4242C15.9415 9.78766 18.7622 7.22656 23.0779 7.22656C25.1444 7.22656 27.3072 7.58789 27.3072 7.58789V12.1406H24.9248C22.5779 12.1406 21.8457 13.5668 21.8457 15.0313V18.5H27.0858L26.2481 23.8477H21.8457V36.7753C30.8781 35.3874 37.7872 27.7337 37.7872 18.5Z" fill="white"/>
</g>
<defs>
<clipPath id="clip0">
<rect width="37.7872" height="37" fill="white"/>
</clipPath>
</defs>
</svg>
