<svg width="348" height="30" viewBox="0 0 348 30" fill="none" xmlns="http://www.w3.org/2000/svg">
<path d="M18.3554 29.084L19.8954 21.692H13.4274C12.4154 21.692 12.0194 21.56 12.0194 20.944C12.0194 20.768 12.0634 20.548 12.1074 20.284L13.5594 13.552H19.0594L20.5114 6.556H15.0114L16.4194 0H5.28743L0.57943 22.132C0.40343 22.968 0.31543 23.76 0.31543 24.42C0.31543 28.116 3.21943 29.084 10.2594 29.084H18.3554Z" fill="white"/>
<path d="M53.6507 29.084L55.0586 22.264H36.2267C34.0266 22.264 33.2786 22.132 33.2786 21.164C33.2786 20.988 33.3227 20.768 33.3666 20.504L33.4547 20.02H49.8666C55.3666 20.02 57.1707 18.92 58.0507 14.652L58.4907 12.54C58.6227 11.88 58.7106 11.308 58.7106 10.736C58.7106 7.92 56.6866 6.556 51.8466 6.556H35.6987C28.8347 6.556 24.9186 8.58 23.9066 13.464L22.2786 21.12C22.0586 22.044 21.9706 22.836 21.9706 23.584C21.9706 27.676 25.0506 29.084 31.6946 29.084H53.6507ZM34.4226 15.62L34.6427 14.476C34.7747 13.816 35.2586 13.464 36.0066 13.464H45.8186C46.8307 13.464 47.3146 13.64 47.3146 14.168C47.3146 14.256 47.2706 14.344 47.2706 14.432L47.2267 14.696C47.0947 15.4 46.5667 15.62 45.3787 15.62H34.4226Z" fill="white"/>
<path d="M88.4712 29.084L90.0111 21.692H72.5872C71.6191 21.692 71.3111 21.296 71.3111 20.724C71.3111 20.592 71.3111 20.46 71.3551 20.284L72.3671 15.444C72.5432 14.608 73.0272 13.992 74.0832 13.992H91.6392L93.2232 6.556H74.2591C65.9431 6.556 62.9071 8.008 61.7191 13.508L59.8711 22.132C59.6951 23.012 59.6071 23.76 59.6071 24.464C59.6071 28.16 62.4671 29.084 69.5071 29.084H88.4712Z" fill="white"/>
<path d="M118.2 13.992C119.168 13.992 119.52 14.344 119.52 14.916C119.52 15.092 119.52 15.268 119.476 15.444L116.616 29.084H127.704L131.004 13.508C131.18 12.716 131.268 12.056 131.268 11.396C131.268 7.568 128.056 6.556 121.28 6.556H114.592C110.808 6.556 109.136 7.216 107.816 8.184L109.576 0H98.4437L92.2837 29.084H103.416L106.276 15.444C106.452 14.52 106.936 13.992 108.168 13.992H118.2Z" fill="white"/>
<path d="M157.863 18.128L159.403 10.912H146.819L147.567 7.392H169.655L171.239 0H137.975L131.815 29.084H142.991L145.279 18.128H157.863Z" fill="white"/>
<path d="M201.525 29.084L203.065 21.692H180.625L181.417 17.996H193.253L194.749 11.044H182.913L183.661 7.392H206.101L207.685 0H174.069L167.909 29.084H201.525Z" fill="white"/>
<path d="M230.158 29.084C236.978 29.084 239.706 26.884 240.718 22.132L241.642 17.82C241.774 17.16 241.862 16.5 241.862 15.928C241.862 12.716 239.662 10.912 234.646 10.912H220.17C219.246 10.912 218.85 10.648 218.85 10.032C218.85 9.856 218.894 9.636 218.938 9.416L219.026 8.976C219.246 7.92 219.73 7.392 220.918 7.392H241.862L243.446 0H220.126C212.382 0 210.138 1.892 209.082 6.864L207.982 12.1C207.85 12.584 207.806 13.068 207.806 13.508C207.806 16.456 210.226 18.172 215.066 18.172H229.762C230.598 18.172 230.95 18.436 230.95 19.14C230.95 19.272 230.95 19.448 230.906 19.668L230.818 20.108C230.554 21.252 230.026 21.692 229.014 21.692H206.178L204.638 29.084H230.158Z" fill="white"/>
<path d="M261.328 29.084L265.904 7.392H276.42L278.004 0H245.796L244.212 7.392H254.772L250.196 29.084H261.328Z" fill="white"/>
<path d="M324.626 29.084L326.166 21.692H301.79L302.23 19.624C302.45 18.656 303.11 18.172 304.166 18.172H316.222C324.45 18.172 327.354 15.928 328.322 11.572L329.246 7.304C329.466 6.336 329.554 5.456 329.554 4.708C329.554 0.747998 326.518 0 319.654 0H306.586C298.226 0 295.19 1.056 293.914 6.864L293.43 9.064H304.474L304.518 8.8C304.782 7.7 305.618 7.304 308.126 7.304H316.046C317.234 7.304 317.806 7.612 317.806 8.404C317.806 8.536 317.806 8.712 317.762 8.888L317.674 9.328C317.41 10.516 316.706 10.956 315.254 10.956H302.494C295.938 10.956 292.506 13.332 291.582 17.732L289.206 29.084H324.626Z" fill="white"/>
<path d="M340.974 29.084L347.134 0H333.406L331.822 7.392H334.462L329.886 29.084H340.974Z" fill="white"/>
</svg>
